<?xml version="1.0" standalone="no"?>
<!DOCTYPE svg PUBLIC "-//W3C//DTD SVG 20010904//EN"
 "http://www.w3.org/TR/2001/REC-SVG-20010904/DTD/svg10.dtd">
<svg version="1.0" xmlns="http://www.w3.org/2000/svg"
 width="400.000000pt" height="400.000000pt" viewBox="0 0 400.000000 400.000000"
 preserveAspectRatio="xMidYMid meet">

<g transform="translate(0.000000,400.000000) scale(0.100000,-0.100000)"
fill="#000000" stroke="none">
<path d="M1215 3238 c-3 -7 -4 -153 -3 -323 l3 -310 35 0 35 0 0 320 0 320
-33 3 c-20 2 -34 -2 -37 -10z"/>
<path d="M732 3197 c-9 -11 -12 -87 -10 -303 l3 -289 35 0 35 0 3 113 3 112
57 0 c78 0 126 15 169 53 45 40 63 82 63 148 0 66 -29 119 -84 150 -35 20 -58
24 -151 27 -89 3 -113 1 -123 -11z m237 -83 c37 -31 48 -80 32 -135 -17 -56
-58 -79 -138 -79 l-63 0 0 120 0 120 69 0 c60 0 74 -4 100 -26z"/>
<path d="M1498 3044 c-51 -16 -83 -50 -72 -78 8 -20 1 -21 69 10 101 46 175
18 175 -67 l0 -39 -53 0 c-68 0 -142 -22 -173 -51 -64 -60 -47 -175 30 -210
22 -10 56 -19 74 -19 35 0 105 31 118 52 6 9 10 5 14 -12 5 -20 12 -25 35 -25
l30 0 3 165 c3 202 -6 238 -72 269 -49 24 -110 26 -178 5z m172 -283 c0 -43
-4 -52 -35 -80 -45 -40 -95 -42 -130 -6 -29 28 -32 61 -9 93 22 31 48 41 117
41 l57 1 0 -49z"/>
<path d="M1973 3041 c-96 -45 -137 -195 -92 -338 13 -42 79 -100 123 -109 49
-9 115 2 154 26 26 16 32 26 32 55 0 19 -2 35 -5 35 -2 0 -21 -11 -41 -25 -23
-16 -51 -25 -75 -25 -90 0 -124 46 -123 165 0 85 17 135 53 155 32 17 103 12
139 -10 45 -27 54 -25 50 12 -4 44 -42 69 -114 74 -45 4 -69 0 -101 -15z"/>
<path d="M2395 3041 c-82 -38 -118 -106 -118 -223 0 -96 27 -157 86 -196 36
-24 50 -27 121 -27 45 0 98 6 119 13 31 12 37 18 37 43 0 34 0 33 -64 14 -125
-38 -202 0 -219 107 l-6 37 152 3 152 3 3 40 c13 149 -128 248 -263 186z m135
-56 c35 -18 50 -43 50 -84 l0 -31 -114 0 -114 0 10 38 c22 81 95 115 168 77z"/>
<path d="M1825 2068 c-3 -7 -4 -153 -3 -323 l3 -310 35 0 35 0 0 320 0 320
-33 3 c-20 2 -34 -2 -37 -10z"/>
<path d="M2328 1955 l-3 -126 -34 25 c-70 52 -155 46 -212 -14 -46 -49 -62
-106 -57 -212 6 -130 49 -193 139 -205 45 -6 117 17 144 47 25 28 35 25 35
-10 0 -27 3 -30 30 -30 l30 0 0 325 0 325 -35 0 -34 0 -3 -125z m-38 -173 l40
-39 0 -82 c0 -69 -4 -87 -21 -109 -31 -40 -70 -62 -109 -62 -72 0 -104 53
-103 170 0 104 39 160 109 160 36 0 50 -6 84 -38z"/>
<path d="M725 2028 c-3 -7 -4 -144 -3 -303 l3 -290 35 0 35 0 3 138 3 137 139
0 140 0 0 -141 0 -140 38 3 37 3 0 300 0 300 -37 3 -38 3 0 -130 0 -131 -140
0 -139 0 -3 128 -3 127 -33 3 c-20 2 -34 -2 -37 -10z"/>
<path d="M1417 1876 c-51 -19 -86 -52 -108 -101 -53 -121 -21 -275 68 -328 43
-24 130 -33 179 -17 61 20 94 49 120 104 52 112 21 275 -62 327 -45 27 -144
35 -197 15z m150 -71 c35 -23 53 -74 53 -150 0 -114 -41 -165 -135 -165 -85 0
-138 88 -121 202 17 115 116 170 203 113z"/>
<path d="M2635 1871 c-82 -38 -118 -106 -118 -223 0 -96 27 -157 86 -196 36
-24 50 -27 121 -27 45 0 98 6 119 13 31 12 37 18 37 43 0 34 0 33 -64 14 -125
-38 -202 0 -219 107 l-6 37 152 3 152 3 3 40 c13 149 -128 248 -263 186z m135
-56 c35 -18 50 -43 50 -84 l0 -31 -114 0 -114 0 10 38 c22 81 95 115 168 77z"/>
<path d="M3165 1879 c-11 -6 -32 -25 -47 -42 l-28 -31 0 38 c0 36 -1 37 -32
34 l-33 -3 0 -220 0 -220 35 0 35 0 5 150 c5 139 7 152 29 182 31 41 69 57
103 44 31 -12 38 -6 38 30 0 44 -56 64 -105 38z"/>
</g>
</svg>
