<?xml version="1.0" standalone="no"?>
<!DOCTYPE svg PUBLIC "-//W3C//DTD SVG 20010904//EN"
 "http://www.w3.org/TR/2001/REC-SVG-20010904/DTD/svg10.dtd">
<svg version="1.0" xmlns="http://www.w3.org/2000/svg"
 width="32.000000pt" height="32.000000pt" viewBox="0 0 32.000000 32.000000"
 preserveAspectRatio="xMidYMid meet">

<g transform="translate(0.000000,32.000000) scale(0.100000,-0.100000)"
fill="#000000" stroke="none">
<path d="M60 228 c0 -36 10 -32 14 6 2 14 -1 26 -5 26 -5 0 -9 -14 -9 -32z"/>
<path d="M87 253 c-3 -5 -3 -19 0 -31 4 -19 12 -22 52 -22 33 0 42 3 31 10
-11 7 -12 10 -2 10 8 0 12 5 10 12 -2 6 -20 12 -39 11 -19 0 -37 5 -40 10 -4
6 -9 6 -12 0z"/>
<path d="M61 130 c-1 -26 2 -31 9 -20 8 13 10 13 10 0 0 -9 3 -11 10 -4 7 7 7
19 1 35 -9 21 -10 22 -11 4 l-1 -20 -9 20 c-7 16 -9 14 -9 -15z"/>
<path d="M115 146 c-5 -6 -11 -18 -11 -27 -1 -13 9 -16 47 -16 39 0 48 3 53
19 4 17 1 19 -20 15 -17 -3 -24 0 -24 11 0 13 -3 12 -16 -4 -8 -10 -13 -14
-10 -7 9 16 -7 24 -19 9z"/>
</g>
</svg>
